<svg width="22" height="23" viewBox="0 0 22 23" fill="none" xmlns="http://www.w3.org/2000/svg">
<rect x="0.378906" y="1.32886" width="21.25" height="21.25" rx="3.625" fill="white"/>
<rect x="0.378906" y="1.32886" width="21.25" height="21.25" rx="3.625" stroke="#20445E" stroke-width="0.75"/>
<path d="M7.5026 10.7872C6.86094 10.7872 6.33594 11.3122 6.33594 11.9539C6.33594 12.5956 6.86094 13.1206 7.5026 13.1206C8.14427 13.1206 8.66927 12.5956 8.66927 11.9539C8.66927 11.3122 8.14427 10.7872 7.5026 10.7872ZM14.5026 10.7872C13.8609 10.7872 13.3359 11.3122 13.3359 11.9539C13.3359 12.5956 13.8609 13.1206 14.5026 13.1206C15.1443 13.1206 15.6693 12.5956 15.6693 11.9539C15.6693 11.3122 15.1443 10.7872 14.5026 10.7872ZM11.0026 10.7872C10.3609 10.7872 9.83594 11.3122 9.83594 11.9539C9.83594 12.5956 10.3609 13.1206 11.0026 13.1206C11.6443 13.1206 12.1693 12.5956 12.1693 11.9539C12.1693 11.3122 11.6443 10.7872 11.0026 10.7872Z" fill="#20445E"/>
</svg>
