<svg width="32" height="32" viewBox="0 0 32 32" fill="none" xmlns="http://www.w3.org/2000/svg">
<path d="M26.6666 4.00016H25.3333V2.66683C25.3333 1.9335 24.7333 1.3335 24 1.3335C23.2666 1.3335 22.6666 1.9335 22.6666 2.66683V4.00016H9.33329V2.66683C9.33329 1.9335 8.73329 1.3335 7.99996 1.3335C7.26663 1.3335 6.66663 1.9335 6.66663 2.66683V4.00016H5.33329C3.86663 4.00016 2.66663 5.20016 2.66663 6.66683V28.0002C2.66663 29.4668 3.86663 30.6668 5.33329 30.6668H26.6666C28.1333 30.6668 29.3333 29.4668 29.3333 28.0002V6.66683C29.3333 5.20016 28.1333 4.00016 26.6666 4.00016ZM25.3333 28.0002H6.66663C5.93329 28.0002 5.33329 27.4002 5.33329 26.6668V10.6668H26.6666V26.6668C26.6666 27.4002 26.0666 28.0002 25.3333 28.0002Z" fill="#225B82"/>
</svg>
