<svg viewBox="0 0 18 20" fill="none" xmlns="http://www.w3.org/2000/svg">
	<path fill-rule="evenodd" clip-rule="evenodd"
		d="M8.9998 0C9.55209 0 9.99981 0.447715 9.99981 1V2.07114C11.2982 2.257 12.5199 2.80282 13.4825 3.65848C14.6932 4.73462 15.3998 6.22119 15.3998 7.8C15.3998 9.61188 15.8077 10.9241 16.3048 11.858L16.3139 11.8751C16.6749 12.5534 16.9567 13.0827 17.1448 13.4615C17.2388 13.6508 17.3209 13.8255 17.3799 13.9739C17.4091 14.0475 17.441 14.1354 17.465 14.2281C17.4827 14.296 17.5274 14.4767 17.4994 14.6927C17.4854 14.8011 17.4538 15.0398 17.3098 15.2795C17.1659 15.5192 16.97 15.6592 16.8809 15.7226C16.7235 15.8345 16.5673 15.8822 16.4897 15.9033C16.398 15.9281 16.3089 15.9428 16.235 15.9525C16.0873 15.9719 15.9154 15.9818 15.7364 15.9879C15.3794 16 14.8806 16 14.2523 16H3.74734C3.11897 16 2.62018 16 2.26326 15.9879C2.08421 15.9818 1.91235 15.9719 1.76462 15.9525C1.69073 15.9428 1.60165 15.9281 1.5099 15.9033C1.43231 15.8822 1.27606 15.8345 1.11868 15.7226C1.02958 15.6592 0.833711 15.5192 0.689772 15.2795C0.545834 15.0398 0.514245 14.8011 0.5002 14.6927C0.472215 14.4767 0.516909 14.296 0.534561 14.2281C0.558631 14.1354 0.59053 14.0475 0.619739 13.9739C0.678665 13.8255 0.760822 13.6508 0.854836 13.4615C1.04294 13.0827 1.32465 12.5534 1.68573 11.8751L1.69481 11.858C2.19191 10.9241 2.5998 9.61188 2.5998 7.8C2.5998 6.22119 3.30641 4.73462 4.51706 3.65848C5.47968 2.80282 6.7014 2.257 7.9998 2.07114V1C7.9998 0.447715 8.44752 0 8.9998 0ZM8.9998 4C7.79732 4 6.66436 4.42568 5.84579 5.1533C5.03106 5.8775 4.5998 6.83273 4.5998 7.8C4.5998 9.92625 4.11753 11.563 3.46028 12.7978C3.19855 13.2895 2.98819 13.6848 2.82591 13.9979C3.08387 14 3.39562 14 3.76958 14H14.23C14.604 14 14.9157 14 15.1737 13.9979C15.0114 13.6848 14.8011 13.2895 14.5393 12.7978C13.8821 11.563 13.3998 9.92625 13.3998 7.8C13.3998 6.83273 12.9686 5.8775 12.1538 5.1533C11.3352 4.42568 10.2023 4 8.9998 4ZM5.60407 17.3383C5.96953 16.9242 6.60147 16.8848 7.01554 17.2503C7.54611 17.7185 8.24069 18.0016 9.00381 18.0016C9.76693 18.0016 10.4615 17.7185 10.9921 17.2503C11.4061 16.8848 12.0381 16.9242 12.4035 17.3383C12.769 17.7523 12.7296 18.3843 12.3155 18.7497C11.4336 19.5281 10.2728 20.0016 9.00381 20.0016C7.73483 20.0016 6.574 19.5281 5.69207 18.7497C5.27801 18.3843 5.2386 17.7523 5.60407 17.3383Z"
		fill="#020617" />
</svg>