<svg width="18" height="18" viewBox="0 0 18 18" fill="none" xmlns="http://www.w3.org/2000/svg">
<path d="M9.53266 1.43662C9.36989 1.34995 9.18831 1.30462 9.00391 1.30462C8.8195 1.30462 8.63792 1.34995 8.47516 1.43662L1.72516 5.03662C1.54518 5.13246 1.39463 5.2754 1.28961 5.45017C1.18459 5.62495 1.12904 5.82498 1.12891 6.02887V6.948L7.59766 10.8293L9.00391 9.9855L10.4102 10.8293L16.8789 6.948V6.02887C16.8788 5.82498 16.8232 5.62495 16.7182 5.45017C16.6132 5.2754 16.4626 5.13246 16.2827 5.03662L9.53266 1.43662ZM16.8789 8.25975L11.5037 11.4851L16.8789 14.7105V8.25975ZM16.8395 15.9998L9.00391 11.2961L1.16828 15.9986C1.233 16.237 1.37436 16.4475 1.57057 16.5975C1.76677 16.7476 2.0069 16.8289 2.25391 16.8289H15.7539C16.0009 16.8289 16.241 16.7476 16.4372 16.5975C16.6334 16.4475 16.7748 16.2381 16.8395 15.9998ZM1.12891 14.7094L6.50416 11.484L1.12891 8.25975V14.7094ZM7.94528 0.44325C8.2711 0.269522 8.63467 0.17865 9.00391 0.17865C9.37315 0.17865 9.73671 0.269522 10.0625 0.44325L16.8125 4.04325C17.1724 4.23516 17.4734 4.52128 17.6833 4.87103C17.8931 5.22078 18.0039 5.621 18.0039 6.02887V15.7039C18.0039 16.3006 17.7669 16.8729 17.3449 17.2949C16.9229 17.7168 16.3506 17.9539 15.7539 17.9539H2.25391C1.65717 17.9539 1.08487 17.7168 0.662916 17.2949C0.240959 16.8729 0.00390626 16.3006 0.00390626 15.7039V6.02887C0.00386547 5.621 0.114697 5.22078 0.324547 4.87103C0.534397 4.52128 0.835372 4.23516 1.19528 4.04325L7.94528 0.44325Z" fill="black"/>
</svg>
