<svg width="33" height="32" viewBox="0 0 33 32" fill="none" xmlns="http://www.w3.org/2000/svg">
<path d="M16.6666 2.6665C9.30659 2.6665 3.33325 8.63984 3.33325 15.9998C3.33325 23.3598 9.30659 29.3332 16.6666 29.3332C24.0266 29.3332 29.9999 23.3598 29.9999 15.9998C29.9999 8.63984 24.0266 2.6665 16.6666 2.6665ZM16.6666 26.6665C10.7733 26.6665 5.99992 21.8932 5.99992 15.9998C5.99992 10.1065 10.7733 5.33317 16.6666 5.33317C22.5599 5.33317 27.3333 10.1065 27.3333 15.9998C27.3333 21.8932 22.5599 26.6665 16.6666 26.6665Z" fill="#225B82"/>
<path d="M9.99992 17.9998C11.1045 17.9998 11.9999 17.1044 11.9999 15.9998C11.9999 14.8953 11.1045 13.9998 9.99992 13.9998C8.89535 13.9998 7.99992 14.8953 7.99992 15.9998C7.99992 17.1044 8.89535 17.9998 9.99992 17.9998Z" fill="#225B82"/>
<path d="M16.6666 17.9998C17.7712 17.9998 18.6666 17.1044 18.6666 15.9998C18.6666 14.8953 17.7712 13.9998 16.6666 13.9998C15.562 13.9998 14.6666 14.8953 14.6666 15.9998C14.6666 17.1044 15.562 17.9998 16.6666 17.9998Z" fill="#225B82"/>
<path d="M23.3333 17.9998C24.4378 17.9998 25.3333 17.1044 25.3333 15.9998C25.3333 14.8953 24.4378 13.9998 23.3333 13.9998C22.2287 13.9998 21.3333 14.8953 21.3333 15.9998C21.3333 17.1044 22.2287 17.9998 23.3333 17.9998Z" fill="#225B82"/>
</svg>
