<svg width="20" height="20" viewBox="0 0 20 20" fill="none" xmlns="http://www.w3.org/2000/svg">
<path d="M16.1935 10.8167C16.2269 10.5501 16.2519 10.2834 16.2519 10.0001C16.2519 9.71675 16.2269 9.45008 16.1935 9.18342L17.9519 7.80841C18.1102 7.68341 18.1518 7.45841 18.0518 7.27508L16.3852 4.39175C16.3102 4.25841 16.1685 4.18341 16.0185 4.18341C15.9685 4.18341 15.9185 4.19175 15.8768 4.20842L13.8018 5.04175C13.3685 4.70842 12.9018 4.43341 12.3935 4.22508L12.0768 2.01675C12.0518 1.81675 11.8769 1.66675 11.6685 1.66675H8.33518C8.12685 1.66675 7.95185 1.81675 7.92685 2.01675L7.61018 4.22508C7.10185 4.43341 6.63518 4.71675 6.20185 5.04175L4.12685 4.20842C4.07685 4.19175 4.02685 4.18341 3.97685 4.18341C3.83518 4.18341 3.69352 4.25841 3.61852 4.39175L1.95185 7.27508C1.84352 7.45841 1.89352 7.68341 2.05185 7.80841L3.81018 9.18342C3.77685 9.45008 3.75185 9.72508 3.75185 10.0001C3.75185 10.2751 3.77685 10.5501 3.81018 10.8167L2.05185 12.1917C1.89352 12.3167 1.85185 12.5417 1.95185 12.7251L3.61852 15.6084C3.69352 15.7417 3.83518 15.8167 3.98518 15.8167C4.03518 15.8167 4.08518 15.8084 4.12685 15.7917L6.20185 14.9584C6.63518 15.2917 7.10185 15.5667 7.61018 15.7751L7.92685 17.9834C7.95185 18.1834 8.12685 18.3334 8.33518 18.3334H11.6685C11.8769 18.3334 12.0518 18.1834 12.0768 17.9834L12.3935 15.7751C12.9018 15.5667 13.3685 15.2834 13.8018 14.9584L15.8768 15.7917C15.9268 15.8084 15.9768 15.8167 16.0268 15.8167C16.1685 15.8167 16.3102 15.7417 16.3852 15.6084L18.0518 12.7251C18.1518 12.5417 18.1102 12.3167 17.9519 12.1917L16.1935 10.8167ZM14.5435 9.39175C14.5769 9.65008 14.5852 9.82508 14.5852 10.0001C14.5852 10.1751 14.5685 10.3584 14.5435 10.6084L14.4268 11.5501L15.1685 12.1334L16.0685 12.8334L15.4852 13.8417L14.4268 13.4167L13.5602 13.0667L12.8102 13.6334C12.4518 13.9001 12.1102 14.1001 11.7685 14.2417L10.8852 14.6001L10.7518 15.5417L10.5852 16.6667H9.41852L9.12685 14.6001L8.24352 14.2417C7.88518 14.0917 7.55185 13.9001 7.21852 13.6501L6.46018 13.0667L5.57685 13.4251L4.51852 13.8501L3.93518 12.8417L4.83518 12.1417L5.57685 11.5584L5.46018 10.6167C5.43518 10.3584 5.41852 10.1667 5.41852 10.0001C5.41852 9.83342 5.43518 9.64175 5.46018 9.39175L5.57685 8.45008L4.83518 7.86675L3.93518 7.16675L4.51852 6.15841L5.57685 6.58342L6.44352 6.93341L7.19352 6.36675C7.55185 6.10008 7.89352 5.90008 8.23518 5.75841L9.11852 5.40008L9.25185 4.45841L9.41852 3.33341H10.5768L10.8685 5.40008L11.7519 5.75841C12.1102 5.90841 12.4435 6.10008 12.7768 6.35008L13.5352 6.93341L14.4185 6.57508L15.4768 6.15008L16.0602 7.15842L15.1685 7.86675L14.4268 8.45008L14.5435 9.39175ZM10.0019 6.66675C8.16018 6.66675 6.66852 8.15841 6.66852 10.0001C6.66852 11.8417 8.16018 13.3334 10.0019 13.3334C11.8435 13.3334 13.3352 11.8417 13.3352 10.0001C13.3352 8.15841 11.8435 6.66675 10.0019 6.66675ZM10.0019 11.6667C9.08518 11.6667 8.33518 10.9167 8.33518 10.0001C8.33518 9.08342 9.08518 8.33342 10.0019 8.33342C10.9185 8.33342 11.6685 9.08342 11.6685 10.0001C11.6685 10.9167 10.9185 11.6667 10.0019 11.6667Z" fill="white" fill-opacity="0.6"/>
</svg>
