<svg width="20" height="20" viewBox="0 0 20 20" fill="none" xmlns="http://www.w3.org/2000/svg">
<path d="M11.6667 5.41659V3.74992H8.33332V5.41659H11.6667ZM3.33332 7.08325V16.2499H16.6667V7.08325H3.33332ZM16.6667 5.41659C17.5917 5.41659 18.3333 6.15825 18.3333 7.08325V16.2499C18.3333 17.1749 17.5917 17.9166 16.6667 17.9166H3.33332C2.40832 17.9166 1.66666 17.1749 1.66666 16.2499L1.67499 7.08325C1.67499 6.15825 2.40832 5.41659 3.33332 5.41659H6.66666V3.74992C6.66666 2.82492 7.40832 2.08325 8.33332 2.08325H11.6667C12.5917 2.08325 13.3333 2.82492 13.3333 3.74992V5.41659H16.6667Z" fill="white" fill-opacity="0.6"/>
</svg>
